<?xml version="1.0" standalone="no"?>
<!DOCTYPE svg PUBLIC "-//W3C//DTD SVG 20010904//EN"
 "http://www.w3.org/TR/2001/REC-SVG-20010904/DTD/svg10.dtd">
<svg version="1.0" xmlns="http://www.w3.org/2000/svg"
 width="3969.000000pt" height="3969.000000pt" viewBox="0 0 3969.000000 3969.000000"
 preserveAspectRatio="xMidYMid meet">
<metadata>
Created by potrace 1.11, written by Peter Selinger 2001-2013
</metadata>
<g transform="translate(0.000000,3969.000000) scale(0.100000,-0.100000)"
fill="#000000" stroke="none">
<path d="M19379 34016 c-2 -2 -49 -7 -104 -11 -55 -4 -116 -8 -135 -10 -19 -2
-69 -6 -111 -10 -42 -3 -91 -7 -110 -10 -19 -2 -59 -6 -89 -10 -70 -8 -104
-12 -210 -25 -47 -6 -101 -13 -120 -15 -91 -12 -375 -53 -414 -61 -11 -2 -75
-13 -141 -25 -159 -27 -223 -39 -295 -54 -14 -3 -47 -10 -75 -15 -77 -15 -83
-17 -200 -43 -60 -14 -126 -28 -145 -31 -32 -5 -368 -89 -540 -135 -394 -104
-868 -258 -1310 -424 -184 -69 -226 -86 -360 -142 -74 -31 -143 -59 -154 -63
-10 -3 -45 -18 -78 -34 -32 -15 -60 -28 -63 -28 -2 0 -28 -11 -57 -24 -29 -13
-87 -40 -128 -58 -188 -86 -282 -131 -515 -249 -302 -152 -356 -181 -630 -336
-162 -92 -330 -193 -520 -311 -134 -84 -597 -391 -605 -402 -3 -3 -34 -26 -70
-50 -67 -45 -304 -221 -465 -345 -248 -190 -708 -577 -876 -735 -20 -19 -81
-75 -135 -125 -113 -104 -512 -501 -629 -626 -106 -113 -243 -264 -286 -314
-19 -22 -37 -42 -40 -45 -5 -4 -81 -91 -166 -190 -431 -504 -911 -1165 -1267
-1743 -81 -132 -250 -420 -296 -502 -18 -33 -46 -85 -63 -115 -150 -266 -444
-865 -573 -1167 -30 -71 -45 -104 -58 -135 -91 -204 -341 -871 -401 -1068 -8
-25 -39 -126 -70 -225 -46 -146 -144 -479 -160 -545 -2 -8 -22 -88 -45 -178
-37 -149 -83 -339 -96 -402 -3 -14 -14 -63 -24 -110 -10 -47 -21 -96 -23 -110
-3 -14 -16 -83 -30 -155 -34 -170 -36 -184 -43 -225 -3 -19 -8 -48 -11 -65 -3
-16 -7 -39 -8 -50 -13 -83 -17 -106 -25 -155 -9 -56 -13 -78 -25 -160 -12 -80
-14 -94 -19 -137 -7 -53 -11 -86 -30 -238 -3 -22 -8 -65 -11 -95 -3 -30 -8
-71 -10 -90 -3 -19 -7 -66 -10 -105 -4 -38 -8 -81 -10 -95 -2 -14 -7 -68 -10
-120 -4 -52 -8 -111 -10 -130 -2 -19 -6 -84 -10 -145 -3 -60 -8 -135 -10 -165
-21 -312 -21 -1112 0 -1455 1 -27 6 -104 9 -170 4 -66 9 -138 11 -160 3 -22 7
-78 10 -124 4 -47 8 -96 10 -110 1 -14 6 -64 10 -111 4 -47 9 -96 10 -110 2
-14 6 -52 9 -85 4 -33 9 -71 11 -85 3 -14 7 -50 10 -80 3 -30 8 -73 11 -95 3
-22 7 -51 9 -65 22 -155 28 -198 39 -267 3 -16 8 -48 11 -73 3 -25 8 -52 10
-60 2 -8 6 -31 9 -50 42 -271 171 -884 239 -1135 6 -22 11 -44 13 -50 10 -48
67 -254 115 -415 17 -58 39 -136 50 -175 11 -38 22 -77 26 -85 3 -8 7 -19 9
-25 1 -5 12 -39 24 -75 12 -36 23 -72 25 -80 5 -23 134 -392 145 -415 5 -11
16 -40 24 -65 15 -47 42 -120 56 -155 5 -11 38 -94 74 -185 66 -168 191 -466
241 -575 15 -33 39 -85 53 -115 62 -135 308 -629 381 -765 45 -82 81 -153 81
-156 0 -4 3 -9 8 -11 4 -2 17 -23 30 -48 66 -129 373 -641 412 -687 5 -7 10
-15 10 -18 0 -20 556 -826 590 -855 3 -3 37 -48 75 -100 65 -88 391 -499 404
-510 4 -3 42 -48 85 -100 44 -52 84 -99 90 -105 6 -5 40 -44 76 -85 35 -41 83
-95 106 -120 23 -25 70 -76 105 -115 305 -332 740 -757 1055 -1031 193 -168
262 -228 345 -295 24 -20 62 -52 85 -70 49 -41 68 -57 255 -202 241 -188 825
-607 846 -607 3 0 22 -13 43 -30 21 -16 41 -30 45 -30 5 0 22 -11 39 -24 24
-18 178 -115 326 -206 238 -145 527 -310 781 -445 117 -62 462 -233 584 -290
230 -107 296 -136 435 -195 69 -29 143 -60 165 -70 329 -145 1206 -448 1575
-545 8 -2 92 -25 185 -50 94 -25 179 -47 190 -49 11 -3 88 -21 170 -41 83 -20
161 -38 175 -41 14 -3 86 -19 160 -35 74 -16 146 -31 160 -34 59 -10 87 -15
110 -20 14 -3 41 -8 60 -11 19 -3 51 -9 70 -14 19 -4 58 -12 85 -16 28 -4 55
-8 60 -10 34 -7 461 -72 530 -80 33 -3 69 -8 80 -10 18 -4 125 -16 250 -29 28
-3 66 -8 85 -10 19 -2 67 -7 105 -10 39 -4 86 -8 105 -10 46 -5 180 -15 405
-30 402 -27 1294 -27 1680 0 22 1 87 6 145 9 58 4 125 9 150 11 25 2 79 7 120
10 41 3 91 8 110 10 19 3 62 7 95 10 33 3 76 7 95 10 19 2 62 7 94 10 33 3 71
7 85 10 31 5 180 25 225 30 17 2 47 6 66 9 19 3 85 13 145 22 61 9 119 18 130
20 10 2 37 6 60 9 183 27 738 141 980 201 77 20 151 37 165 40 14 3 34 8 45
11 11 4 27 8 35 9 8 2 31 8 50 14 35 11 278 79 380 106 30 8 64 19 75 23 11 5
61 21 110 36 182 54 245 75 470 153 209 72 418 149 470 172 11 5 88 36 170 69
132 52 535 225 583 250 9 5 49 24 87 41 285 131 810 404 1095 570 69 40 141
81 160 92 19 11 42 26 51 34 8 8 19 14 24 14 5 0 25 11 44 24 20 13 86 54 146
92 315 194 857 570 1120 776 100 79 431 343 435 347 3 3 48 42 100 86 82 69
124 105 174 150 6 6 49 44 96 85 198 175 334 304 600 570 198 198 376 384 457
476 10 12 48 54 84 95 144 160 308 352 448 524 270 331 675 889 861 1185 5 8
24 38 43 65 32 48 121 191 216 348 101 167 259 445 376 662 67 123 292 577
350 705 27 58 62 134 78 170 104 229 263 620 348 860 17 47 34 94 39 105 4 11
12 32 18 47 15 36 132 385 170 508 109 346 246 855 297 1103 2 10 6 26 9 35 3
9 7 28 10 42 2 14 11 57 20 95 8 39 17 82 20 95 2 14 14 72 25 130 12 58 23
116 26 130 3 14 7 36 10 50 8 42 25 138 30 175 2 11 6 38 9 60 13 79 35 221
41 259 3 21 7 48 10 60 3 12 7 39 9 61 5 42 23 195 31 255 2 19 7 58 10 85 3
28 8 66 10 85 5 42 16 156 30 325 4 39 8 90 10 114 4 40 11 154 20 311 24 423
24 1256 0 1565 -2 22 -6 92 -10 155 -3 63 -8 133 -10 155 -5 45 -13 134 -20
215 -2 30 -7 80 -10 110 -3 30 -7 73 -9 95 -5 55 -15 141 -22 190 -11 77 -12
90 -19 145 -8 65 -11 92 -20 145 -3 22 -7 54 -9 70 -3 17 -9 59 -15 95 -5 36
-12 81 -15 100 -3 19 -8 45 -10 56 -2 12 -7 39 -11 60 -18 118 -49 287 -86
469 -48 235 -56 270 -130 570 -22 94 -42 175 -44 180 -1 6 -5 17 -8 25 -3 8
-12 42 -21 75 -46 184 -137 488 -231 770 -64 192 -188 543 -205 580 -6 11 -21
49 -34 85 -24 64 -135 336 -161 395 -8 17 -32 75 -55 130 -23 55 -45 105 -50
110 -4 6 -14 28 -22 50 -58 147 -356 741 -527 1050 -75 135 -246 427 -296 505
-12 19 -60 96 -106 170 -118 190 -316 484 -481 715 -137 191 -467 619 -574
745 -12 14 -77 90 -144 170 -249 293 -443 503 -755 815 -279 279 -455 447
-625 595 -41 35 -77 67 -80 70 -22 24 -310 265 -460 385 -102 81 -194 154
-205 163 -11 10 -54 42 -95 72 -41 30 -80 59 -86 65 -19 17 -180 133 -349 252
-88 62 -165 116 -170 121 -6 5 -15 11 -20 13 -6 2 -50 31 -98 64 -49 33 -96
65 -105 70 -61 38 -112 71 -147 94 -44 30 -392 243 -465 283 -25 14 -85 49
-135 78 -220 129 -781 418 -1025 529 -286 130 -424 190 -650 281 -58 23 -118
48 -135 55 -16 8 -75 30 -130 51 -55 20 -129 48 -165 61 -236 87 -705 243
-855 283 -84 23 -324 91 -350 99 -45 15 -508 128 -595 146 -41 8 -118 24 -170
35 -92 20 -279 57 -330 66 -14 2 -38 6 -55 9 -16 3 -40 7 -51 9 -12 2 -37 7
-55 10 -19 3 -43 7 -54 10 -27 5 -271 43 -370 56 -44 6 -91 13 -105 15 -14 2
-45 6 -70 10 -25 3 -61 7 -80 10 -32 4 -73 9 -185 20 -22 3 -60 7 -85 10 -60
6 -128 13 -225 21 -44 3 -96 9 -115 12 -42 6 -2135 14 -2141 8z"/>
</g>
</svg>
